<?xml version="1.0" encoding="UTF-8" standalone="no"?>
<svg width="8px" height="8px" viewBox="0 0 8 8" version="1.1" xmlns="http://www.w3.org/2000/svg" xmlns:xlink="http://www.w3.org/1999/xlink">
    <!-- Generator: Sketch 39.1 (31720) - http://www.bohemiancoding.com/sketch -->
    <title>icn_search_blue</title>
    <desc>Created with Sketch.</desc>
    <defs></defs>
    <g id="Page-1" stroke="none" stroke-width="1" fill="none" fill-rule="evenodd">
        <g id="icn_search_blue" fill="#FFFFFF">
            <path d="M7.823,6.764 L5.903,4.844 C5.978,4.721 6.043,4.593 6.101,4.459 C6.123,4.409 6.138,4.356 6.157,4.304 C6.199,4.192 6.235,4.077 6.264,3.959 C6.285,3.877 6.303,3.795 6.317,3.71 C6.331,3.623 6.337,3.533 6.344,3.443 C6.35,3.357 6.369,3.275 6.369,3.187 C6.369,1.429 4.943,0.003 3.184,0.003 C1.426,0.003 0,1.429 0,3.187 C0,4.946 1.426,6.372 3.184,6.372 C3.325,6.372 3.459,6.349 3.595,6.33 C3.615,6.328 3.635,6.327 3.655,6.324 C3.771,6.306 3.883,6.284 3.994,6.255 C4.066,6.236 4.136,6.213 4.205,6.189 C4.332,6.146 4.454,6.098 4.573,6.04 C4.648,6.004 4.726,5.97 4.798,5.928 L6.729,7.859 C6.918,8.048 7.224,8.048 7.413,7.859 L7.891,7.38 C8.08,7.191 8.012,6.953 7.823,6.764 L7.823,6.764 Z M3.185,5.435 C1.943,5.435 0.936,4.429 0.936,3.186 C0.936,1.944 1.943,0.938 3.185,0.938 C4.427,0.938 5.434,1.944 5.434,3.186 C5.433,4.429 4.426,5.435 3.185,5.435 L3.185,5.435 Z" id="Shape"></path>
        </g>
    </g>
</svg>