<?xml version="1.0" encoding="utf-8"?>
<!-- Generator: Adobe Illustrator 19.1.0, SVG Export Plug-In . SVG Version: 6.00 Build 0)  -->
<svg version="1.1" baseProfile="tiny" id="icons" xmlns="http://www.w3.org/2000/svg" xmlns:xlink="http://www.w3.org/1999/xlink"
	 x="0px" y="0px" width="7px" height="22px" viewBox="0 0 7 22" xml:space="preserve">
<g id="icn_x5F_smiley_x5F_line_x5F_dark">
</g>
<g>
	<path fill="#37454D" d="M3.508,3.737c0.947,0,1.717-0.836,1.717-1.869S4.455,0,3.508,0C2.556,0,1.783,0.835,1.783,1.868
		S2.556,3.737,3.508,3.737z M6.351,5.68C5.931,4.74,5.276,4.173,3.669,4.173H3.341c-1.607,0-2.262,0.567-2.683,1.506
		c-0.211,0.469-0.654,6.328-0.654,6.328c-0.034,0.344,0.195,0.655,0.514,0.691c0.021,0.001,0.04,0.003,0.061,0.003
		c0.293,0,0.545-0.241,0.575-0.564l0.454-5.091l0.112,3.952L1.388,21.215c-0.024,0.405,0.256,0.753,0.626,0.784
		C2.032,22,2.047,22,2.061,22c0.354,0,0.651-0.293,0.678-0.681l0.768-8.417l0.764,8.417C4.297,21.707,4.595,22,4.948,22
		c0.014,0,0.029,0,0.047-0.001c0.372-0.03,0.651-0.378,0.627-0.783L5.291,10.999l0.113-3.953l0.454,5.091
		c0.029,0.324,0.28,0.564,0.572,0.564c0.021,0,0.042-0.001,0.063-0.003c0.316-0.036,0.549-0.347,0.515-0.69
		C7.008,12.008,6.563,6.148,6.351,5.68z"/>
</g>
</svg>
