<?xml version="1.0" encoding="UTF-8" standalone="no"?>
<svg width="92px" height="42px" viewBox="0 0 92 42" version="1.1" xmlns="http://www.w3.org/2000/svg" xmlns:xlink="http://www.w3.org/1999/xlink">
    <!-- Generator: Sketch 39.1 (31720) - http://www.bohemiancoding.com/sketch -->
    <title>Combined Shape</title>
    <desc>Created with Sketch.</desc>
    <defs></defs>
    <g id="Page-1" stroke="none" stroke-width="1" fill="none" fill-rule="evenodd">
        <g id="Desktop" transform="translate(-648.000000, -211.000000)" stroke="#979797" fill="#FFFFFF">
            <g id="Group-14" transform="translate(571.000000, 118.000000)">
                <path d="M78.9156046,134 C78.3207077,132.105918 78,130.090411 78,128 C78,116.954305 86.954305,108 98,108 C99.0864962,108 100.152757,108.086637 101.192252,108.253379 C105.744076,99.769413 114.698279,94 125,94 C138.205607,94 149.196938,103.480446 151.539161,116.006509 L151.539161,116.006509 C151.692246,116.002179 151.845868,116 152,116 C160.836556,116 168,123.163444 168,132 C168,132.677321 167.957913,133.344812 167.876212,134 L78.9156046,134 Z" id="Combined-Shape"></path>
            </g>
        </g>
    </g>
</svg>