<?xml version="1.0" encoding="UTF-8" standalone="no"?>
<svg width="465px" height="393px" viewBox="0 0 465 393" version="1.1" xmlns="http://www.w3.org/2000/svg" xmlns:xlink="http://www.w3.org/1999/xlink">
    <!-- Generator: Sketch 39.1 (31720) - http://www.bohemiancoding.com/sketch -->
    <title>Combined Shape</title>
    <desc>Created with Sketch.</desc>
    <defs></defs>
    <g id="Page-1" stroke="none" stroke-width="1" fill="none" fill-rule="evenodd">
        <g id="Desktop" transform="translate(-492.000000, -2284.000000)" fill="#FC4444">
            <path d="M601.349471,2399.46529 C628.681398,2331.76903 695.012172,2284 772.5,2284 C874.396536,2284 957,2366.60346 957,2468.5 C957,2570.39654 874.396536,2653 772.5,2653 C754.597048,2653 737.289665,2650.45007 720.921227,2645.69358 C696.775049,2665.27053 666.007307,2677 632.5,2677 C554.903993,2677 492,2614.09601 492,2536.5 C492,2469.60935 538.744481,2413.63645 601.349471,2399.46529 Z M601.349471,2399.46529 C592.739898,2420.78965 588,2444.09129 588,2468.5 C588,2552.49358 644.126976,2623.37801 720.921227,2645.69358 C752.692613,2619.93436 773,2580.5887 773,2536.5 C773,2458.90399 710.096007,2396 632.5,2396 C621.794646,2396 611.368936,2397.1973 601.349471,2399.46529 Z" id="Combined-Shape"></path>
        </g>
    </g>
</svg>