<?xml version="1.0" encoding="UTF-8" standalone="no"?>
<svg width="480px" height="600px" viewBox="0 0 480 600" version="1.1" xmlns="http://www.w3.org/2000/svg" xmlns:xlink="http://www.w3.org/1999/xlink">
    <!-- Generator: Sketch 39.1 (31720) - http://www.bohemiancoding.com/sketch -->
    <title>Slice</title>
    <desc>Created with Sketch.</desc>
    <defs></defs>
    <g id="Page-1" stroke="none" stroke-width="1" fill="none" fill-rule="evenodd">
        <g id="no_avatar-3d6725770296b6a1cce653a203d8f85dcc5298945b71fa7360e3d9aa4a3fc054" transform="translate(-60.000000, -1.000000)">
            <g id="Group">
                <polygon id="Shape" fill="#DCE1EA" points="0 0 600 0 600 600 0 600"></polygon>
                <path d="M156.264,426.3744 C168.3372,394.3992 187.5408,388.338 202.9092,385.5888 C218.2644,382.83 255.5856,373.4484 258.8688,364.638 C259.9296,361.7832 260.2944,356.3448 260.3148,350.304 C269.0748,357.5844 281.7744,365.2152 297.3996,365.8992 C298.1556,365.9316 298.9116,365.9532 299.6664,365.9532 C313.44,365.9532 326.8392,360.4392 339.6768,349.5516 C339.6708,355.8876 340.02,361.6692 341.1252,364.638 C344.406,373.446 381.726,382.8264 397.0824,385.5888 C412.4472,388.338 431.6508,394.3992 443.724,426.3744 C455.796,458.3616 144.192,458.3616 156.264,426.3744 L156.264,426.3744 Z M359.3916,289.1028 C359.3916,289.1028 358.3008,307.8732 341.436,328.4328 L341.412,328.4124 C327.2184,344.772 312.6624,352.6944 298.08,352.1448 C278.2404,351.3192 263.3532,334.836 259.5144,330.15 L259.5144,330.138 C241.2876,308.9184 240.2052,289.1028 240.2052,289.1028 C240.2052,289.1028 230.3376,290.76 224.8524,267.0456 C219.3672,243.3276 230.3376,248.8512 230.3376,248.8512 C216.072,173.8776 274.3056,153.474 274.3056,153.474 C284.9856,150.2376 293.3964,149.7816 299.7984,150.4416 C306.2184,149.784 314.6112,150.2376 325.3032,153.474 C325.3032,153.474 383.5332,173.8776 369.2736,248.8512 C369.2736,248.8512 380.2476,243.3312 374.7624,267.0456 C369.2736,290.76 359.3916,289.1028 359.3916,289.1028 L359.3916,289.1028 Z" id="Shape" fill="#FFFFFF"></path>
            </g>
        </g>
    </g>
</svg>